<svg width="115" height="127" viewBox="0 0 115 127" fill="none" xmlns="http://www.w3.org/2000/svg">
<path d="M19.1667 127C13.8426 127 9.31713 125.148 5.59028 121.444C1.86343 117.74 0 113.242 0 107.95V88.9H19.1667V0L28.75 9.525L38.3333 0L47.9167 9.525L57.5 0L67.0833 9.525L76.6667 0L86.25 9.525L95.8333 0L105.417 9.525L115 0V107.95C115 113.242 113.137 117.74 109.41 121.444C105.683 125.148 101.157 127 95.8333 127H19.1667ZM95.8333 114.3C97.6435 114.3 99.1598 113.69 100.382 112.471C101.609 111.256 102.222 109.749 102.222 107.95V19.05H31.9444V88.9H89.4444V107.95C89.4444 109.749 90.0578 111.256 91.2844 112.471C92.5069 113.69 94.0231 114.3 95.8333 114.3ZM38.3333 44.45V31.75H76.6667V44.45H38.3333ZM38.3333 63.5V50.8H76.6667V63.5H38.3333ZM89.4444 44.45C87.6343 44.45 86.118 43.8404 84.8956 42.6212C83.6689 41.4062 83.0556 39.8992 83.0556 38.1C83.0556 36.3008 83.6689 34.7916 84.8956 33.5724C86.118 32.3575 87.6343 31.75 89.4444 31.75C91.2546 31.75 92.7709 32.3575 93.9933 33.5724C95.22 34.7916 95.8333 36.3008 95.8333 38.1C95.8333 39.8992 95.22 41.4062 93.9933 42.6212C92.7709 43.8404 91.2546 44.45 89.4444 44.45ZM89.4444 63.5C87.6343 63.5 86.118 62.8904 84.8956 61.6712C83.6689 60.4562 83.0556 58.9492 83.0556 57.15C83.0556 55.3508 83.6689 53.8416 84.8956 52.6224C86.118 51.4075 87.6343 50.8 89.4444 50.8C91.2546 50.8 92.7709 51.4075 93.9933 52.6224C95.22 53.8416 95.8333 55.3508 95.8333 57.15C95.8333 58.9492 95.22 60.4562 93.9933 61.6712C92.7709 62.8904 91.2546 63.5 89.4444 63.5ZM19.1667 114.3H76.6667V101.6H12.7778V107.95C12.7778 109.749 13.389 111.256 14.6114 112.471C15.8381 113.69 17.3565 114.3 19.1667 114.3Z" fill="#0073E6"/>
</svg>
