<svg width="76" height="74" viewBox="0 0 76 74" fill="none" xmlns="http://www.w3.org/2000/svg">
<path d="M0.664062 8.60465C0.664062 3.85243 4.47526 0 9.17661 0H67.4875C72.1889 0 76.0001 3.85243 76.0001 8.60465V65.3953C76.0001 70.1476 72.1889 74 67.4875 74H9.17661C4.47526 74 0.664062 70.1476 0.664062 65.3953V8.60465Z" fill="#0073E6"/>
<path d="M8.5637 68.407C8.2232 68.407 7.91675 68.2865 7.64435 68.0456C7.37195 67.7702 7.23575 67.4433 7.23575 67.0647V33.6098C7.23575 33.2312 7.37195 32.9214 7.64435 32.6805C7.91675 32.4051 8.2232 32.2674 8.5637 32.2674H17.0422C17.4168 32.2674 17.7402 32.4051 18.0126 32.6805C18.285 32.9214 18.4212 33.2312 18.4212 33.6098V59.2172H33.182C33.5565 59.2172 33.88 59.3549 34.1524 59.6302C34.4248 59.8712 34.561 60.1809 34.561 60.5595V67.0647C34.561 67.4433 34.4248 67.7702 34.1524 68.0456C33.88 68.2865 33.5565 68.407 33.182 68.407H8.5637Z" fill="white"/>
<path d="M39.7875 68.407C39.447 68.407 39.1405 68.2865 38.8681 68.0456C38.5957 67.7702 38.4595 67.4433 38.4595 67.0647V33.6098C38.4595 33.2312 38.5957 32.9214 38.8681 32.6805C39.1405 32.4051 39.447 32.2674 39.7875 32.2674H54.3439C58.9747 32.2674 62.6011 33.3344 65.2229 35.4684C67.8789 37.6023 69.2068 40.5795 69.2068 44.4C69.2068 46.8093 68.662 48.8572 67.5724 50.5437C66.4828 52.2302 65.0527 53.5553 63.2821 54.5191L69.9219 66.7033C70.024 66.9098 70.0751 67.0991 70.0751 67.2712C70.0751 67.5809 69.9729 67.8563 69.7686 68.0972C69.5643 68.3037 69.309 68.407 69.0025 68.407H60.3708C59.7238 68.407 59.2301 68.2521 58.8896 67.9423C58.5491 67.5981 58.3278 67.2884 58.2256 67.013L53.1181 56.3777H49.4407V67.0647C49.4407 67.4433 49.3045 67.7702 49.0321 68.0456C48.7937 68.2865 48.4873 68.407 48.1127 68.407H39.7875ZM49.4407 47.8591H54.2928C55.4846 47.8591 56.3699 47.5321 56.9487 46.8781C57.5276 46.1898 57.817 45.3465 57.817 44.3484C57.817 43.3158 57.5276 42.4381 56.9487 41.7153C56.4039 40.9926 55.5186 40.6312 54.2928 40.6312H49.4407V47.8591Z" fill="white"/>
<path d="M2.06509 43.6104C1.72459 43.6104 1.41814 43.4899 1.14574 43.249C0.873335 42.9736 0.737134 42.6466 0.737134 42.268V8.81314C0.737134 8.43454 0.873335 8.12477 1.14574 7.88384C1.41814 7.60849 1.72459 7.47082 2.06509 7.47082H10.5436C10.9181 7.47082 11.2416 7.60849 11.514 7.88384C11.7864 8.12477 11.9226 8.43454 11.9226 8.81314V34.4206H26.6834C27.0579 34.4206 27.3814 34.5583 27.6538 34.8336C27.9262 35.0745 28.0624 35.3843 28.0624 35.7629V42.268C28.0624 42.6466 27.9262 42.9736 27.6538 43.249C27.3814 43.4899 27.0579 43.6104 26.6834 43.6104H2.06509Z" fill="white" fill-opacity="0.6"/>
<path d="M33.2888 43.6104C32.9483 43.6104 32.6419 43.4899 32.3695 43.249C32.0971 42.9736 31.9609 42.6466 31.9609 42.268V8.81314C31.9609 8.43454 32.0971 8.12477 32.3695 7.88384C32.6419 7.60849 32.9483 7.47082 33.2888 7.47082H47.8453C52.4761 7.47082 56.1025 8.53779 58.7243 10.6717C61.3802 12.8057 62.7082 15.7829 62.7082 19.6034C62.7082 22.0127 62.1634 24.0606 61.0738 25.7471C59.9842 27.4336 58.5541 28.7587 56.7835 29.7224L63.4232 41.9066C63.5254 42.1131 63.5765 42.3024 63.5765 42.4745C63.5765 42.7843 63.4743 43.0597 63.27 43.3006C63.0657 43.5071 62.8103 43.6104 62.5039 43.6104H53.8722C53.2252 43.6104 52.7315 43.4555 52.391 43.1457C52.0505 42.8015 51.8292 42.4917 51.727 42.2164L46.6195 31.5811H42.9421V42.268C42.9421 42.6466 42.8059 42.9736 42.5335 43.249C42.2951 43.4899 41.9887 43.6104 41.6141 43.6104H33.2888ZM42.9421 23.0624H47.7942C48.986 23.0624 49.8713 22.7355 50.4501 22.0815C51.029 21.3931 51.3184 20.5499 51.3184 19.5517C51.3184 18.5192 51.029 17.6415 50.4501 16.9187C49.9053 16.1959 49.02 15.8345 47.7942 15.8345H42.9421V23.0624Z" fill="white" fill-opacity="0.6"/>
</svg>
